<svg width="132" height="177" viewBox="0 0 132 177" fill="none" xmlns="http://www.w3.org/2000/svg">
<path d="M0 8C0 3.58172 3.58172 0 8 0H124C128.418 0 132 3.58172 132 8V163.072C132 169.246 125.302 173.093 119.969 169.982L66 138.5L12.031 169.982C6.69771 173.093 0 169.246 0 163.072V8Z" fill="#00A3B1"/>
<path d="M34.966 30.7415C34.966 31.2169 34.8273 31.6065 34.55 31.9103C34.2859 32.214 33.9227 32.4188 33.4605 32.5244C32.7209 32.6829 31.9615 32.7687 31.1823 32.7819C30.4163 32.7819 29.6569 32.8017 28.9042 32.8414V36.7637C28.9042 40.0918 29.0032 43.4133 29.2013 46.7281C29.4126 50.0298 29.7494 53.3381 30.2116 56.6529C30.2512 56.851 30.2909 57.0491 30.3305 57.2472C30.3833 57.4453 30.4097 57.6434 30.4097 57.8415C30.4097 58.1585 30.3239 58.3896 30.1522 58.5349C29.9937 58.6801 29.7626 58.7528 29.4588 58.7528C29.2211 58.7528 28.924 58.7198 28.5674 58.6537C28.224 58.6009 27.9533 58.5151 27.7552 58.3962C27.4911 58.2377 27.3194 58.0792 27.2401 57.9208C27.1741 57.7491 27.1213 57.5246 27.0817 57.2472C26.9364 56.3096 26.8373 55.3719 26.7845 54.4342C26.7317 53.4965 26.6722 52.5589 26.6062 51.6212C26.4477 49.6138 26.3157 47.613 26.21 45.6188C26.1044 43.6246 26.0515 41.6238 26.0515 39.6164C26.0515 38.5202 26.0581 37.4307 26.0713 36.3477C26.0846 35.2648 26.0912 34.162 26.0912 33.0395C25.2723 33.1187 24.4469 33.1979 23.6149 33.2772C22.7961 33.3564 21.9707 33.396 21.1387 33.396C20.9406 33.396 20.7821 33.3498 20.6632 33.2574C20.5312 33.1517 20.4651 32.9998 20.4651 32.8017C20.4651 32.3395 20.617 31.9829 20.9208 31.732C21.2245 31.4679 21.5877 31.283 22.0103 31.1773C22.6838 31.0321 23.3706 30.9396 24.0705 30.9C24.7705 30.8472 25.4704 30.7811 26.1704 30.7019C26.1704 30.5698 26.177 30.4444 26.1902 30.3255C26.2034 30.1934 26.2298 30.0812 26.2694 29.9887C26.3223 29.8831 26.3949 29.7972 26.4874 29.7312C26.5798 29.6652 26.7119 29.6322 26.8836 29.6322C27.2005 29.6322 27.5241 29.7048 27.8542 29.8501C28.1844 29.9953 28.4419 30.2 28.6268 30.4642L31.9153 30.1076C32.2322 30.068 32.5492 30.0284 32.8662 29.9887C33.1831 29.9359 33.5001 29.9095 33.817 29.9095C33.9623 29.9095 34.101 29.9161 34.233 29.9293C34.3783 29.9425 34.5038 29.9821 34.6094 30.0482C34.7151 30.101 34.8009 30.1868 34.867 30.3057C34.933 30.4113 34.966 30.5566 34.966 30.7415ZM48.3179 42.786C48.3179 43.3406 48.3047 43.9878 48.2783 44.7273C48.2651 45.4537 48.2189 46.2329 48.1396 47.0649C48.0736 47.8969 47.9679 48.7488 47.8227 49.6204C47.6906 50.492 47.5123 51.3439 47.2878 52.1759C47.0633 53.0079 46.786 53.7937 46.4558 54.5333C46.1256 55.2728 45.7294 55.92 45.2672 56.4746C44.805 57.0293 44.2701 57.4717 43.6626 57.8019C43.0551 58.1189 42.3617 58.2773 41.5825 58.2773C40.8033 58.2773 40.0968 58.099 39.4629 57.7425C38.829 57.3727 38.2941 56.8906 37.8583 56.2963C37.5017 55.8209 37.1847 55.2398 36.9074 54.5531C36.6433 53.8531 36.4055 53.0937 36.1942 52.2749C35.9961 51.4561 35.8244 50.6043 35.6792 49.7194C35.5339 48.8346 35.415 47.963 35.3226 47.1045C35.2434 46.2461 35.1839 45.4339 35.1443 44.6679C35.1047 43.8887 35.0849 43.2086 35.0849 42.6275C35.0849 41.6502 35.1245 40.6267 35.2037 39.5569C35.2962 38.4872 35.4613 37.4307 35.699 36.3873C35.9367 35.3308 36.2603 34.3139 36.6697 33.3366C37.0791 32.3593 37.6073 31.4811 38.2545 30.7019C38.3205 30.6226 38.3997 30.5302 38.4922 30.4245C38.5978 30.3189 38.7101 30.2198 38.829 30.1274C38.9478 30.0217 39.0667 29.9359 39.1855 29.8699C39.3176 29.7906 39.4431 29.751 39.5619 29.751C39.6808 29.751 39.793 29.784 39.8987 29.8501C40.0176 29.9161 40.1166 30.0019 40.1958 30.1076C40.4732 29.9491 40.7637 29.8369 41.0675 29.7708C41.3844 29.7048 41.7014 29.6718 42.0184 29.6718C42.9824 29.6718 43.8079 29.9029 44.4946 30.3651C45.1946 30.8141 45.7756 31.4084 46.2379 32.148C46.7001 32.8876 47.0699 33.7262 47.3472 34.6639C47.6246 35.6015 47.8359 36.559 47.9812 37.5363C48.1264 38.5136 48.2189 39.4579 48.2585 40.3691C48.2981 41.2804 48.3179 42.086 48.3179 42.786ZM45.2276 43.6576C45.2276 43.3142 45.2144 42.7926 45.1879 42.0926C45.1747 41.3795 45.1285 40.6003 45.0493 39.755C44.97 38.8966 44.8578 38.0184 44.7125 37.1203C44.5804 36.2223 44.3956 35.4101 44.1578 34.6837C43.9201 33.9441 43.623 33.3432 43.2664 32.881C42.923 32.4055 42.507 32.1678 42.0184 32.1678C41.8203 32.1678 41.642 32.2603 41.4835 32.4452C41.325 32.6301 41.1731 32.8678 41.0279 33.1583C40.8826 33.4489 40.7505 33.7658 40.6317 34.1092C40.5128 34.4526 40.3939 34.7827 40.2751 35.0997C40.1562 35.4167 40.044 35.7006 39.9383 35.9515C39.8327 36.2025 39.7204 36.3807 39.6015 36.4864C39.5619 36.526 39.4959 36.5524 39.4034 36.5656C39.3242 36.5656 39.245 36.5656 39.1657 36.5656C38.9412 36.5656 38.7299 36.526 38.5318 36.4468C38.3073 37.3448 38.1488 38.2429 38.0564 39.1409C37.9771 40.0258 37.9375 40.9238 37.9375 41.8351C37.9375 42.1124 37.9507 42.5284 37.9771 43.0831C38.0035 43.6378 38.0432 44.2717 38.096 44.9849C38.1488 45.698 38.2214 46.464 38.3139 47.2828C38.4063 48.1016 38.5186 48.9204 38.6507 49.7393C38.7827 50.5449 38.9346 51.324 39.1063 52.0768C39.2912 52.8164 39.5025 53.4767 39.7402 54.0578C39.9779 54.6257 40.2421 55.0813 40.5326 55.4247C40.8232 55.7681 41.1467 55.9398 41.5033 55.9398C41.7014 55.9398 41.8797 55.8869 42.0382 55.7813C42.1966 55.6624 42.3485 55.5436 42.4938 55.4247C42.89 55.0681 43.2334 54.5993 43.5239 54.0182C43.8145 53.4371 44.0588 52.7966 44.2569 52.0966C44.455 51.3967 44.6201 50.6637 44.7521 49.8977C44.8842 49.1185 44.9832 48.3526 45.0493 47.5998C45.1153 46.847 45.1615 46.1338 45.1879 45.4603C45.2144 44.7736 45.2276 44.1727 45.2276 43.6576ZM63.4527 36.6845C63.4527 37.992 63.2414 39.306 62.8188 40.6267C62.4094 41.9473 61.8283 43.1822 61.0755 44.3311C60.336 45.4801 59.4445 46.5036 58.4012 47.4017C57.3579 48.2997 56.2155 48.9799 54.9741 49.4421C55.0533 50.5383 55.1458 51.6278 55.2514 52.7107C55.3571 53.7937 55.5023 54.8832 55.6872 55.9794C55.7268 56.1775 55.7665 56.3822 55.8061 56.5935C55.8589 56.8048 55.8853 57.0227 55.8853 57.2472C55.8853 57.5906 55.7995 57.8217 55.6278 57.9406C55.4561 58.0594 55.2118 58.1189 54.8948 58.1189C54.6703 58.1189 54.3996 58.0924 54.0826 58.0396C53.7657 57.9868 53.4949 57.9076 53.2704 57.8019C53.0063 57.6566 52.828 57.5114 52.7355 57.3661C52.6563 57.2076 52.5969 56.9963 52.5573 56.7322C52.3327 55.6096 52.1941 54.487 52.1412 53.3645C52.1016 52.2419 52.0422 51.1193 51.963 49.9968C51.6988 49.9704 51.4809 49.9043 51.3092 49.7987C51.1375 49.6798 51.0517 49.4817 51.0517 49.2044C51.0517 48.9402 51.1243 48.6629 51.2696 48.3724C51.4281 48.0818 51.6064 47.8573 51.8045 47.6988C51.6856 45.2424 51.6328 42.8058 51.646 40.389C51.6724 37.9721 51.6724 35.5355 51.646 33.0791C51.58 33.1055 51.5205 33.1253 51.4677 33.1385C51.4149 33.1517 51.3554 33.1583 51.2894 33.1583C51.1441 33.1583 51.0253 33.1253 50.9328 33.0593C50.8404 32.98 50.7611 32.8876 50.6951 32.7819C50.6423 32.6763 50.6027 32.564 50.5763 32.4452C50.5498 32.3131 50.5366 32.1942 50.5366 32.0886C50.5366 31.6924 50.6357 31.4084 50.8338 31.2368C51.0319 31.0519 51.3026 30.8868 51.646 30.7415C51.646 30.5962 51.646 30.4312 51.646 30.2463C51.6592 30.0482 51.6856 29.8699 51.7252 29.7114C51.7781 29.5397 51.8573 29.401 51.963 29.2954C52.0686 29.1765 52.2271 29.1171 52.4384 29.1171C52.7818 29.1171 53.1119 29.1831 53.4289 29.3152C53.7458 29.4473 53.9836 29.6718 54.142 29.9887C54.6043 29.9095 55.0533 29.8369 55.4891 29.7708C55.9249 29.7048 56.374 29.6718 56.8362 29.6718C57.8795 29.6718 58.8106 29.8501 59.6294 30.2066C60.4482 30.55 61.1416 31.0387 61.7094 31.6726C62.2773 32.2933 62.7065 33.0329 62.9971 33.8913C63.3008 34.7497 63.4527 35.6808 63.4527 36.6845ZM60.4812 36.3279C60.4812 35.7204 60.402 35.1525 60.2435 34.6243C60.085 34.0828 59.8473 33.6206 59.5304 33.2376C59.2134 32.8414 58.8106 32.531 58.3219 32.3065C57.8333 32.082 57.2588 31.9697 56.5985 31.9697C56.2419 31.9697 55.8787 31.9961 55.5089 32.049C55.1524 32.1018 54.8024 32.181 54.459 32.2867C54.459 34.7035 54.4722 37.1005 54.4986 39.4777C54.5382 41.8549 54.6307 44.2387 54.776 46.6291C55.6212 46.1933 56.3938 45.5858 57.0937 44.8066C57.7937 44.0274 58.3946 43.169 58.8964 42.2313C59.3983 41.2804 59.7879 40.2965 60.0652 39.2796C60.3426 38.2495 60.4812 37.2656 60.4812 36.3279Z" fill="white"/>
<path d="M46.7255 85.6684L46.189 90.0504C46.815 89.9908 47.441 89.9312 48.067 89.8715C48.693 89.7821 49.319 89.6927 49.945 89.6033L50.3922 85.3106C49.796 85.3703 49.1849 85.4299 48.5589 85.4895C47.9627 85.5491 47.3516 85.6087 46.7255 85.6684ZM47.7987 75.8311C47.7987 76.7254 47.7242 77.6048 47.5751 78.4693C47.4559 79.3338 47.3516 80.2131 47.2621 81.1074L51.0182 80.5709L51.197 78.8717L52.0913 72.3434C52.1211 72.1049 52.136 71.7621 52.136 71.3149C52.1658 70.838 52.2255 70.3759 52.3149 69.9288C52.4043 69.4816 52.5385 69.0941 52.7173 68.7662C52.926 68.4085 53.2241 68.2296 53.6116 68.2296C54.3867 68.2296 55.0425 68.5426 55.5791 69.1686C56.1156 69.7946 56.3839 70.4951 56.3839 71.2702C56.3839 72.7011 56.2647 74.1916 56.0262 75.7417C55.8175 77.2918 55.6387 78.7823 55.4896 80.2131C55.9964 80.1535 56.4883 80.1088 56.9652 80.079C57.4422 80.0492 57.934 80.0343 58.4408 80.0343C58.9476 80.0343 59.3947 80.0939 59.7823 80.2131C60.1996 80.3026 60.4083 80.6603 60.4083 81.2863C60.4083 81.5248 60.3934 81.7335 60.3635 81.9123C60.3337 82.0912 60.289 82.27 60.2294 82.4489C59.9909 83.2239 59.7077 83.7903 59.3798 84.148C59.0817 84.5058 58.724 84.7592 58.3067 84.9082C57.8893 85.0274 57.3975 85.0722 56.8311 85.0423C56.2945 85.0125 55.6685 85.0125 54.9531 85.0423L54.5953 89.0667C55.0425 89.0071 55.5045 88.9623 55.9815 88.9325C56.4585 88.9027 56.9205 88.8878 57.3677 88.8878C57.8744 88.8878 58.3216 88.9623 58.7091 89.1114C59.1264 89.2604 59.3351 89.6331 59.3351 90.2293C59.3351 90.4975 59.2904 90.8105 59.201 91.1683C59.1115 91.4962 58.9923 91.839 58.8432 92.1967C58.6942 92.5246 58.5153 92.8376 58.3067 93.1357C58.098 93.404 57.8744 93.5978 57.6359 93.717C57.1292 93.9555 56.533 94.0598 55.8474 94.03C55.1915 94.0002 54.5953 93.9853 54.0588 93.9853C54.029 94.2834 53.9693 94.8349 53.8799 95.6397C53.8203 96.4148 53.7458 97.324 53.6563 98.3673C53.5669 99.4107 53.4626 100.499 53.3433 101.632C53.2241 102.764 53.1049 103.823 52.9856 104.806C52.8664 105.79 52.7471 106.625 52.6279 107.31C52.5385 107.996 52.449 108.383 52.3596 108.473C52.2702 108.562 52.1509 108.652 52.0019 108.741C51.8826 108.801 51.7336 108.831 51.5547 108.831C50.5114 108.831 49.6469 108.503 48.9613 107.847C48.3055 107.161 47.9776 106.327 47.9776 105.343C47.9776 104.359 48.0521 103.39 48.2011 102.436C48.38 101.453 48.5439 100.484 48.693 99.5299L49.319 94.343C48.693 94.4026 48.0819 94.4623 47.4857 94.5219C46.8895 94.5517 46.2784 94.6113 45.6524 94.7007C45.5033 96.1316 45.3394 97.5476 45.1605 98.9486C45.0115 100.35 44.8475 101.766 44.6687 103.197C44.5792 103.614 44.4451 103.957 44.2662 104.225C44.0874 104.493 43.7744 104.627 43.3272 104.627C42.9397 104.627 42.5373 104.553 42.1199 104.404C41.7324 104.255 41.3598 104.061 41.0021 103.823C40.6741 103.554 40.391 103.256 40.1525 102.928C39.9438 102.571 39.8395 102.183 39.8395 101.766C39.8395 100.693 39.9587 99.6045 40.1972 98.5015C40.4357 97.3985 40.6443 96.3105 40.8232 95.2373C40.4655 95.2969 40.0929 95.3416 39.7053 95.3715C39.3178 95.4013 38.9452 95.4162 38.5875 95.4162C38.1701 95.4162 37.8422 95.3416 37.6037 95.1926C37.3653 95.0137 37.246 94.7007 37.246 94.2536C37.246 93.568 37.3653 93.0165 37.6037 92.5991C37.8422 92.1818 38.1552 91.8688 38.5427 91.6601C38.9303 91.4217 39.3774 91.2577 39.8842 91.1683C40.391 91.049 40.9126 90.9447 41.4492 90.8553L42.0752 86.2944C41.7175 86.354 41.3598 86.3987 41.0021 86.4285C40.6443 86.4583 40.2866 86.4732 39.9289 86.4732C39.5116 86.4732 39.1837 86.3987 38.9452 86.2496C38.7067 86.0708 38.5875 85.7578 38.5875 85.3106C38.5875 84.625 38.7067 84.0735 38.9452 83.6562C39.1837 83.2388 39.4967 82.9109 39.8842 82.6725C40.2717 82.434 40.7189 82.2551 41.2256 82.1359C41.7324 82.0166 42.2541 81.9123 42.7906 81.8229L43.5061 76.636C43.5359 76.3975 43.5657 76.0547 43.5955 75.6075C43.6551 75.1604 43.7297 74.7281 43.8191 74.3108C43.9383 73.8637 44.0874 73.491 44.2662 73.1929C44.4749 72.865 44.7581 72.7011 45.1158 72.7011C45.5033 72.7011 45.8611 72.8054 46.189 73.0141C46.5467 73.1929 46.8299 73.4314 47.0386 73.7295C47.277 74.0276 47.4559 74.3704 47.5751 74.7579C47.7242 75.1157 47.7987 75.4734 47.7987 75.8311ZM75.656 116.969C75.656 117.654 75.4175 118.116 74.9406 118.355C74.4636 118.564 73.927 118.668 73.3308 118.668C72.8837 118.668 72.3471 118.608 71.7211 118.489C71.0951 118.37 70.5585 118.221 70.1114 118.042C69.5152 117.774 69.0829 117.461 68.8146 117.103C68.5464 116.745 68.3526 116.343 68.2333 115.896C68.1439 115.448 68.0992 114.986 68.0992 114.509C68.0992 114.003 68.0843 113.481 68.0545 112.944C67.5179 103.763 67.0857 94.6411 66.7578 85.5789C66.4299 76.5167 66.2659 67.3949 66.2659 58.2135C66.2659 57.6173 66.3553 57.1403 66.5342 56.7826C66.713 56.4249 67.1602 56.246 67.8756 56.246C68.6805 56.246 69.5003 56.4398 70.3349 56.8273C71.1994 57.2149 71.8105 57.7961 72.1682 58.5712C72.2875 58.8097 72.362 59.2121 72.3918 59.7785C72.4514 60.3449 72.4962 60.9411 72.526 61.5671C72.5558 62.1931 72.5707 62.8191 72.5707 63.4451C72.5707 64.0413 72.5856 64.5034 72.6154 64.8313C72.8539 72.5222 73.1222 80.1833 73.4203 87.8147C73.7184 95.446 74.2549 103.107 75.03 110.798C75.1194 111.841 75.2387 112.87 75.3877 113.883C75.5666 114.897 75.656 115.925 75.656 116.969ZM90.7696 66.9776C90.233 68.2594 89.8008 69.6456 89.4729 71.1361C89.145 72.6265 88.8916 74.1468 88.7127 75.697C88.5339 77.2471 88.4146 78.7972 88.355 80.3473C88.2954 81.8676 88.2656 83.3134 88.2656 84.6846C88.2656 85.1914 88.2805 86.0261 88.3103 87.1887C88.3699 88.3214 88.4593 89.648 88.5786 91.1683C88.6978 92.6588 88.8469 94.2834 89.0257 96.0422C89.2046 97.801 89.4132 99.5746 89.6517 101.363C89.8902 103.122 90.1585 104.821 90.4566 106.461C90.7845 108.07 91.1422 109.501 91.5297 110.753C91.9471 112.005 92.3942 113.019 92.8712 113.794C93.3481 114.539 93.8698 114.912 94.4362 114.912C94.8237 114.912 95.1814 114.718 95.5094 114.331C95.8671 113.943 96.1801 113.481 96.4484 112.944C96.7167 112.408 96.9402 111.871 97.1191 111.335C97.3278 110.798 97.4768 110.381 97.5662 110.083C98.4605 107.251 99.0865 104.404 99.4443 101.542C99.802 98.6505 99.9808 95.7143 99.9808 92.7333C99.9808 90.5274 99.9212 88.2022 99.802 85.7578C99.7125 83.2836 99.5337 80.8243 99.2654 78.3798C98.9971 75.9056 98.6245 73.4761 98.1475 71.0913C97.6706 68.7066 97.0595 66.4708 96.3142 64.3841C96.0757 63.6985 95.8075 63.0129 95.5094 62.3272C95.2113 61.6416 94.7939 61.0454 94.2573 60.5387C94.1977 60.5983 93.9891 60.9411 93.6313 61.5671C93.2736 62.1931 92.8861 62.8787 92.4688 63.624C92.0812 64.3692 91.7086 65.0847 91.3509 65.7703C91.023 66.4261 90.8292 66.8285 90.7696 66.9776ZM106.777 89.6927C106.777 90.7062 106.763 91.9284 106.733 93.3593C106.703 94.7604 106.628 96.2807 106.509 97.9202C106.42 99.5597 106.256 101.244 106.017 102.973C105.809 104.702 105.511 106.401 105.123 108.07C104.736 109.74 104.244 111.32 103.647 112.81C103.051 114.301 102.321 115.612 101.456 116.745C100.622 117.848 99.638 118.727 98.5052 119.383C97.3725 120.039 96.0757 120.367 94.6151 120.367C93.214 120.367 91.9769 120.069 90.9037 119.473C89.8306 118.906 88.8916 118.146 88.0867 117.192C87.3116 116.238 86.6409 115.15 86.0745 113.928C85.5082 112.706 85.0312 111.439 84.6437 110.127C84.2859 108.816 83.9879 107.519 83.7494 106.237C83.5109 104.926 83.3171 103.733 83.1681 102.66C82.7507 99.828 82.4377 96.9961 82.2291 94.1642C82.0204 91.3322 81.9161 88.4705 81.9161 85.5789C81.9161 82.6874 82.0353 79.7958 82.2738 76.9043C82.5123 73.9829 83.019 71.151 83.7941 68.4085C83.6152 68.1402 83.4513 67.8719 83.3022 67.6036C83.1532 67.3353 83.0787 67.0372 83.0787 66.7093C83.0787 66.5304 83.0936 66.3814 83.1234 66.2621C83.1532 66.1131 83.1979 65.964 83.2575 65.815C83.645 64.6226 84.1667 63.3706 84.8225 62.059C85.4783 60.7473 86.2534 59.5549 87.1477 58.4818C88.0718 57.3788 89.1151 56.4845 90.2777 55.7989C91.4403 55.0835 92.737 54.7257 94.1679 54.7257C95.4199 54.7257 96.5378 54.9642 97.5215 55.4412C98.5052 55.9181 99.3697 56.559 100.115 57.3639C100.86 58.1688 101.501 59.0929 102.038 60.1362C102.574 61.1498 103.021 62.2229 103.379 63.3557C103.767 64.4885 104.08 65.6212 104.318 66.754C104.586 67.8868 104.81 68.945 104.989 69.9288C105.585 73.2078 106.032 76.4869 106.33 79.766C106.628 83.0451 106.777 86.354 106.777 89.6927Z" fill="white"/>
</svg>
