<svg width="32" height="32" viewBox="0 0 32 32" fill="none" xmlns="http://www.w3.org/2000/svg">
<path d="M10.4467 6.26271C11.4031 6.18638 12.3111 5.81031 13.0414 5.18805C13.8666 4.4844 14.9156 4.0979 16 4.0979C17.0845 4.0979 18.1335 4.4844 18.9587 5.18805C19.689 5.81031 20.597 6.18638 21.5534 6.26271C22.6344 6.34871 23.6494 6.81714 24.4161 7.58394C25.1829 8.35074 25.6514 9.36571 25.7374 10.4467C25.8137 11.4031 26.1898 12.3111 26.812 13.0414C27.5157 13.8666 27.9022 14.9156 27.9022 16C27.9022 17.0845 27.5157 18.1335 26.812 18.9587C26.1898 19.689 25.8137 20.597 25.7374 21.5534C25.6514 22.6344 25.1829 23.6494 24.4161 24.4161C23.6494 25.1829 22.6344 25.6514 21.5534 25.7374C20.597 25.8137 19.689 26.1898 18.9587 26.812C18.1335 27.5157 17.0845 27.9022 16 27.9022C14.9156 27.9022 13.8666 27.5157 13.0414 26.812C12.3111 26.1898 11.4031 25.8137 10.4467 25.7374C9.36571 25.6514 8.35074 25.1829 7.58394 24.4161C6.81714 23.6494 6.34871 22.6344 6.26271 21.5534C6.18638 20.597 5.81031 19.689 5.18805 18.9587C4.4844 18.1335 4.0979 17.0845 4.0979 16C4.0979 14.9156 4.4844 13.8666 5.18805 13.0414C5.81031 12.3111 6.18638 11.4031 6.26271 10.4467C6.34871 9.36571 6.81714 8.35074 7.58394 7.58394C8.35074 6.81714 9.36571 6.34871 10.4467 6.26271Z" stroke="#111111" stroke-width="2" stroke-linecap="round" stroke-linejoin="round"/>
<path d="M12.5572 21V19.6676L16.092 16.2024C16.43 15.861 16.7118 15.5578 16.9371 15.2926C17.1625 15.0275 17.3316 14.7706 17.4442 14.522C17.5569 14.2734 17.6133 14.0083 17.6133 13.7266C17.6133 13.4051 17.5404 13.13 17.3945 12.9013C17.2487 12.6693 17.0482 12.4903 16.793 12.3643C16.5378 12.2384 16.2478 12.1754 15.9229 12.1754C15.5882 12.1754 15.2949 12.245 15.043 12.3842C14.7911 12.5201 14.5955 12.714 14.4563 12.9659C14.3204 13.2178 14.2525 13.5178 14.2525 13.8658H12.4975C12.4975 13.2195 12.645 12.6577 12.94 12.1804C13.235 11.7031 13.641 11.3336 14.158 11.0717C14.6784 10.8099 15.275 10.679 15.9478 10.679C16.6306 10.679 17.2305 10.8066 17.7475 11.0618C18.2646 11.317 18.6656 11.6667 18.9506 12.1108C19.239 12.5549 19.3832 13.062 19.3832 13.6321C19.3832 14.0133 19.3103 14.3878 19.1644 14.7557C19.0186 15.1236 18.7617 15.5312 18.3938 15.9787C18.0292 16.4261 17.5172 16.968 16.8576 17.6044L15.1026 19.3892V19.4588H19.5373V21H12.5572Z" fill="#111111"/>
</svg>
