<svg width="32" height="32" viewBox="0 0 32 32" fill="none" xmlns="http://www.w3.org/2000/svg">
<path d="M10.4467 6.26271C11.4031 6.18638 12.3111 5.81031 13.0414 5.18805C13.8666 4.4844 14.9156 4.0979 16 4.0979C17.0845 4.0979 18.1335 4.4844 18.9587 5.18805C19.689 5.81031 20.597 6.18638 21.5534 6.26271C22.6344 6.34871 23.6494 6.81714 24.4161 7.58394C25.1829 8.35074 25.6514 9.36571 25.7374 10.4467C25.8137 11.4031 26.1898 12.3111 26.812 13.0414C27.5157 13.8666 27.9022 14.9156 27.9022 16C27.9022 17.0845 27.5157 18.1335 26.812 18.9587C26.1898 19.689 25.8137 20.597 25.7374 21.5534C25.6514 22.6344 25.1829 23.6494 24.4161 24.4161C23.6494 25.1829 22.6344 25.6514 21.5534 25.7374C20.597 25.8137 19.689 26.1898 18.9587 26.812C18.1335 27.5157 17.0845 27.9022 16 27.9022C14.9156 27.9022 13.8666 27.5157 13.0414 26.812C12.3111 26.1898 11.4031 25.8137 10.4467 25.7374C9.36571 25.6514 8.35074 25.1829 7.58394 24.4161C6.81714 23.6494 6.34871 22.6344 6.26271 21.5534C6.18638 20.597 5.81031 19.689 5.18805 18.9587C4.4844 18.1335 4.0979 17.0845 4.0979 16C4.0979 14.9156 4.4844 13.8666 5.18805 13.0414C5.81031 12.3111 6.18638 11.4031 6.26271 10.4467C6.34871 9.36571 6.81714 8.35074 7.58394 7.58394C8.35074 6.81714 9.36571 6.34871 10.4467 6.26271Z" stroke="#111111" stroke-width="2" stroke-linecap="round" stroke-linejoin="round"/>
<path d="M15.9994 21.1392C15.2835 21.1392 14.6471 21.0166 14.0903 20.7713C13.5368 20.526 13.0993 20.1847 12.7778 19.7472C12.4563 19.3097 12.2856 18.8042 12.2657 18.2308H14.135C14.1516 18.5059 14.2427 18.7462 14.4085 18.9517C14.5742 19.1539 14.7946 19.3113 15.0697 19.424C15.3448 19.5367 15.653 19.593 15.9944 19.593C16.359 19.593 16.6821 19.5301 16.9639 19.4041C17.2456 19.2749 17.466 19.0959 17.6251 18.8672C17.7842 18.6385 17.8621 18.375 17.8588 18.0767C17.8621 17.7685 17.7825 17.4967 17.6201 17.2614C17.4577 17.026 17.2224 16.8421 16.9142 16.7095C16.6092 16.5769 16.2413 16.5107 15.8105 16.5107H14.9106V15.0888H15.8105C16.1651 15.0888 16.475 15.0275 16.7401 14.9048C17.0086 14.7822 17.2191 14.6098 17.3715 14.3878C17.524 14.1624 17.5986 13.9022 17.5953 13.6072C17.5986 13.3189 17.5339 13.0687 17.4014 12.8565C17.2721 12.6411 17.0882 12.4737 16.8495 12.3544C16.6142 12.2351 16.3374 12.1754 16.0193 12.1754C15.7077 12.1754 15.4194 12.2318 15.1542 12.3445C14.8891 12.4571 14.6753 12.6179 14.5129 12.8267C14.3505 13.0322 14.2643 13.2775 14.2544 13.5625H12.4795C12.4927 12.9924 12.6568 12.492 12.9717 12.0611C13.2899 11.6269 13.7141 11.2888 14.2444 11.0469C14.7747 10.8016 15.3696 10.679 16.0292 10.679C16.7087 10.679 17.2986 10.8066 17.7991 11.0618C18.3029 11.3137 18.6923 11.6534 18.9674 12.081C19.2425 12.5085 19.3801 12.9808 19.3801 13.4979C19.3834 14.0713 19.2143 14.5518 18.873 14.9396C18.5349 15.3274 18.0908 15.581 17.5406 15.7003V15.7798C18.2565 15.8793 18.805 16.1444 19.1862 16.5753C19.5706 17.0028 19.7612 17.5348 19.7579 18.1712C19.7579 18.7412 19.5955 19.2517 19.2707 19.7024C18.9492 20.1499 18.5051 20.5012 17.9383 20.7564C17.3749 21.0116 16.7285 21.1392 15.9994 21.1392Z" fill="#111111"/>
</svg>
