<svg width="32" height="32" viewBox="0 0 32 32" fill="none" xmlns="http://www.w3.org/2000/svg">
<path d="M10.4467 6.26271C11.4031 6.18638 12.3111 5.81031 13.0414 5.18805C13.8666 4.4844 14.9156 4.0979 16 4.0979C17.0845 4.0979 18.1335 4.4844 18.9587 5.18805C19.689 5.81031 20.597 6.18638 21.5534 6.26271C22.6344 6.34871 23.6494 6.81714 24.4161 7.58394C25.1829 8.35074 25.6514 9.36571 25.7374 10.4467C25.8137 11.4031 26.1898 12.3111 26.812 13.0414C27.5157 13.8666 27.9022 14.9156 27.9022 16C27.9022 17.0845 27.5157 18.1335 26.812 18.9587C26.1898 19.689 25.8137 20.597 25.7374 21.5534C25.6514 22.6344 25.1829 23.6494 24.4161 24.4161C23.6494 25.1829 22.6344 25.6514 21.5534 25.7374C20.597 25.8137 19.689 26.1898 18.9587 26.812C18.1335 27.5157 17.0845 27.9022 16 27.9022C14.9156 27.9022 13.8666 27.5157 13.0414 26.812C12.3111 26.1898 11.4031 25.8137 10.4467 25.7374C9.36571 25.6514 8.35074 25.1829 7.58394 24.4161C6.81714 23.6494 6.34871 22.6344 6.26271 21.5534C6.18638 20.597 5.81031 19.689 5.18805 18.9587C4.4844 18.1335 4.0979 17.0845 4.0979 16C4.0979 14.9156 4.4844 13.8666 5.18805 13.0414C5.81031 12.3111 6.18638 11.4031 6.26271 10.4467C6.34871 9.36571 6.81714 8.35074 7.58394 7.58394C8.35074 6.81714 9.36571 6.34871 10.4467 6.26271Z" stroke="#111111" stroke-width="2" stroke-linecap="round" stroke-linejoin="round"/>
<path d="M17.6829 10.8182V21H15.8384V12.6129H15.7788L13.3974 14.1342V12.4439L15.9279 10.8182H17.6829Z" fill="#111111"/>
</svg>
