<svg width="152" height="124" viewBox="0 0 152 124" fill="none" xmlns="http://www.w3.org/2000/svg">
<path d="M5.68976 119.07C3.88951 118.727 1.43361 117.312 6.01202 114.403C11.735 110.766 75.1477 82.6576 141.49 91.3642" stroke="#00A3B1" stroke-width="6" stroke-linecap="round"/>
<path d="M53.71 35.2266C53.71 35.4609 53.71 35.6953 53.71 35.9297C53.71 36.1348 53.6807 36.3398 53.6221 36.5449C54.0615 38.127 54.457 39.7236 54.8086 41.335C55.1895 42.917 55.5557 44.499 55.9072 46.0811C56.083 44.2939 56.2295 42.5068 56.3467 40.7197C56.4932 38.9033 56.5664 37.1016 56.5664 35.3145C56.5664 33.5566 56.5078 31.7695 56.3906 29.9531C56.2734 28.1074 55.9805 26.3496 55.5117 24.6797L55.3359 24.0645C55.2773 23.918 55.2334 23.7568 55.2041 23.5811C55.1748 23.4053 55.1602 23.2295 55.1602 23.0537C55.1602 22.7314 55.2334 22.4824 55.3799 22.3066C55.5557 22.1016 55.7607 21.9551 55.9951 21.8672C56.2295 21.7793 56.4932 21.7207 56.7861 21.6914C57.0791 21.6621 57.3428 21.6475 57.5771 21.6475C58.3096 21.6475 59.0713 21.7354 59.8623 21.9111C60.3896 22.0576 60.8145 22.2773 61.1367 22.5703C61.459 22.834 61.6934 23.1562 61.8398 23.5371C62.0156 23.918 62.1328 24.3428 62.1914 24.8115C62.25 25.251 62.2939 25.7051 62.3232 26.1738C62.3232 26.2324 62.3232 26.291 62.3232 26.3496C62.3525 26.4082 62.3672 26.4668 62.3672 26.5254C62.5137 27.8145 62.6162 29.1182 62.6748 30.4365C62.7627 31.7256 62.8066 33 62.8066 34.2598C62.8066 38.1855 62.5723 42.0967 62.1035 45.9932C61.6641 49.8896 61.1221 53.7568 60.4775 57.5947C60.3896 58.1807 60.2578 58.7812 60.082 59.3965C59.9355 60.0117 59.7158 60.583 59.4229 61.1104C59.1299 61.6377 58.749 62.0771 58.2803 62.4287C57.8115 62.751 57.2256 62.9121 56.5225 62.9121C55.7314 62.9121 55.0869 62.7363 54.5889 62.3848C54.0908 62.0039 53.6807 61.5352 53.3584 60.9785C53.0654 60.3926 52.8457 59.748 52.6992 59.0449C52.5527 58.3418 52.4355 57.6533 52.3477 56.9795C52.2891 56.6572 52.2305 56.3643 52.1719 56.1006C52.1426 55.8369 52.0986 55.5879 52.04 55.3535L50.8096 49.9043C50.5752 50.7246 50.2529 51.7646 49.8428 53.0244C49.4619 54.2549 49.0371 55.5 48.5684 56.7598C48.1289 58.0195 47.6748 59.1621 47.2061 60.1875C46.7666 61.2129 46.4004 61.916 46.1074 62.2969C45.7852 62.6777 45.375 62.9707 44.877 63.1758C44.3789 63.4102 43.8809 63.5273 43.3828 63.5273C42.5039 63.5273 41.7422 63.249 41.0977 62.6924C40.5117 62.1064 40.1309 61.4326 39.9551 60.6709C39.7793 59.9092 39.6475 59.1475 39.5596 58.3857C39.5596 58.3271 39.5449 58.2539 39.5156 58.166C39.5156 58.0781 39.5156 58.0049 39.5156 57.9463C39.0762 54.7236 38.7539 51.457 38.5488 48.1465C38.3438 44.8066 38.2412 41.4814 38.2412 38.1709V30.876C38.2412 30.6123 38.2559 30.334 38.2852 30.041C38.3145 29.748 38.373 29.4844 38.4609 29.25C38.5781 28.9863 38.7393 28.7812 38.9443 28.6348C39.1787 28.4883 39.501 28.415 39.9111 28.415C40.9951 28.415 41.8887 28.7373 42.5918 29.3818C43.2949 30.0264 43.6904 30.876 43.7783 31.9307C43.8662 33.3369 43.9248 34.7578 43.9541 36.1934C44.0127 37.6289 44.0566 39.0498 44.0859 40.4561C44.1152 42.0674 44.1299 43.6348 44.1299 45.1582C44.1592 46.6523 44.2617 48.2344 44.4375 49.9043C44.7891 48.7617 45.126 47.5752 45.4482 46.3447C45.7705 45.1143 46.0488 43.8691 46.2832 42.6094C46.5469 41.3496 46.752 40.1045 46.8984 38.874C47.0742 37.6143 47.1621 36.3984 47.1621 35.2266C47.1621 35.0801 47.1475 34.9629 47.1182 34.875C47.1182 34.7578 47.1182 34.626 47.1182 34.4795C47.0889 34.333 47.0742 34.1865 47.0742 34.04C47.0742 33.8936 47.0742 33.7471 47.0742 33.6006C47.0742 32.8682 47.2354 32.3262 47.5576 31.9746C47.8799 31.623 48.4365 31.4473 49.2275 31.4473C49.5205 31.4473 49.8721 31.4912 50.2822 31.5791C50.7217 31.667 51.1465 31.7988 51.5566 31.9746C51.9961 32.1504 52.3916 32.3701 52.7432 32.6338C53.0947 32.8975 53.3291 33.1904 53.4463 33.5127H53.4023C53.5488 33.8057 53.6367 34.084 53.666 34.3477C53.6953 34.6113 53.71 34.9043 53.71 35.2266ZM87.8098 44.9824C87.8098 47.5312 87.59 50.0801 87.1506 52.6289C86.7404 55.1484 85.8762 57.5361 84.5578 59.792C84.1477 60.4658 83.6789 61.125 83.1516 61.7695C82.6242 62.3848 82.0383 62.9414 81.3937 63.4395C80.7785 63.9668 80.09 64.377 79.3283 64.6699C78.5959 64.9922 77.8195 65.1533 76.9992 65.1533C75.7102 65.1533 74.5822 64.8457 73.6154 64.2305C72.6779 63.6445 71.8576 62.8682 71.1545 61.9014C70.4807 60.9053 69.9094 59.792 69.4406 58.5615C69.0012 57.3018 68.6496 56.0273 68.3859 54.7383C68.1516 53.4199 67.9758 52.1455 67.8586 50.915C67.7707 49.6846 67.7268 48.6006 67.7268 47.6631C67.7268 46.6084 67.7707 45.4512 67.8586 44.1914C67.9465 42.9316 68.093 41.6426 68.298 40.3242C68.5324 39.0059 68.8254 37.7021 69.177 36.4131C69.5578 35.124 70.0412 33.9229 70.6271 32.8096C71.2131 31.667 71.9162 30.6562 72.7365 29.7773C73.5568 28.8691 74.509 28.1514 75.593 27.624V27.668C76.5305 27.1699 77.468 26.9209 78.4055 26.9209C78.9914 26.9209 79.4455 27.0527 79.7678 27.3164C80.09 27.5508 80.2365 27.9609 80.2072 28.5469C81.8186 28.8398 83.1223 29.6162 84.1184 30.876C85.1145 32.1357 85.8762 33.6006 86.4035 35.2705C86.9602 36.9404 87.3264 38.6543 87.5021 40.4121C87.7072 42.1699 87.8098 43.6934 87.8098 44.9824ZM77.8781 33.9961C77.3801 33.9961 76.9113 33.8057 76.4719 33.4248C75.9152 34.2744 75.4465 35.2559 75.0656 36.3691C74.6848 37.4531 74.3771 38.5811 74.1428 39.7529C73.9377 40.8955 73.7912 42.0527 73.7033 43.2246C73.6154 44.3965 73.5715 45.4951 73.5715 46.5205C73.5715 47.3701 73.6154 48.4688 73.7033 49.8164C73.7912 51.1348 73.9523 52.4678 74.1867 53.8154C74.4504 55.1631 74.802 56.4229 75.2414 57.5947C75.7102 58.7666 76.3107 59.6309 77.0432 60.1875C77.9514 59.6602 78.6984 58.8252 79.2844 57.6826C79.8996 56.5107 80.383 55.2363 80.7346 53.8594C81.0861 52.4824 81.3205 51.0908 81.4377 49.6846C81.5842 48.2783 81.6574 47.0771 81.6574 46.0811C81.6574 45.3486 81.6135 44.3965 81.5256 43.2246C81.4377 42.0527 81.2912 40.8662 81.0861 39.665C80.8811 38.4346 80.5881 37.292 80.2072 36.2373C79.8557 35.1826 79.4016 34.3916 78.8449 33.8643C78.5812 33.9521 78.259 33.9961 77.8781 33.9961ZM96.9047 63.7031C96.4652 63.7031 95.9818 63.6445 95.4545 63.5273C94.9564 63.4102 94.473 63.2197 94.0043 62.9561C93.5648 62.6924 93.184 62.3701 92.8617 61.9893C92.5687 61.5791 92.4223 61.0957 92.4223 60.5391C92.4223 59.7188 92.4516 58.9131 92.5102 58.1221C92.598 57.3018 92.6859 56.4961 92.7738 55.7051V55.749L93.0375 52.8047C93.1254 51.75 93.1986 50.5928 93.2572 49.333C93.3158 48.0732 93.3598 46.7988 93.3891 45.5098C93.4477 44.1914 93.4916 42.9023 93.5209 41.6426C93.5502 40.3828 93.5648 39.2256 93.5648 38.1709C93.5648 37.5557 93.5502 36.9404 93.5209 36.3252C93.5209 35.6807 93.5209 35.0361 93.5209 34.3916C93.4916 33.835 93.477 33.2197 93.477 32.5459C93.477 31.8428 93.477 31.1982 93.477 30.6123C93.477 29.9971 93.5502 29.499 93.6967 29.1182C93.8725 28.708 94.3412 28.5029 95.1029 28.5029C95.7768 28.5029 96.4799 28.6787 97.2123 29.0303C97.974 29.3818 98.5014 29.8799 98.7943 30.5244H98.7504C98.8969 30.8467 98.9994 31.374 99.058 32.1064C99.1459 32.8096 99.2045 33.4395 99.2338 33.9961C99.7318 33.2344 100.288 32.4287 100.904 31.5791C101.548 30.7295 102.237 29.9531 102.969 29.25C103.702 28.5176 104.478 27.917 105.298 27.4482C106.119 26.9795 106.997 26.7451 107.935 26.7451C109.165 26.7451 110.103 27.0527 110.747 27.668C111.392 28.2832 111.861 29.0596 112.154 29.9971C112.447 30.9053 112.608 31.8867 112.637 32.9414C112.666 33.9668 112.681 34.9043 112.681 35.7539V36.1055C112.681 36.457 112.666 36.8086 112.637 37.1602C112.637 37.4824 112.579 37.79 112.461 38.083C112.373 38.3467 112.198 38.5664 111.934 38.7422C111.7 38.918 111.363 39.0059 110.923 39.0059C110.454 39.0059 109.956 38.9473 109.429 38.8301C108.902 38.6836 108.404 38.4785 107.935 38.2148C107.496 37.9512 107.115 37.6289 106.792 37.248C106.47 36.8379 106.294 36.3691 106.265 35.8418C106.265 35.6074 106.265 35.373 106.265 35.1387C106.265 34.9043 106.28 34.6699 106.309 34.4355C106.309 34.2891 106.309 34.1133 106.309 33.9082C106.338 33.6738 106.353 33.4541 106.353 33.249C105.415 34.1865 104.58 35.3438 103.848 36.7207C103.145 38.0977 102.5 39.5625 101.914 41.1152C101.358 42.668 100.874 44.2354 100.464 45.8174C100.054 47.3701 99.7025 48.7764 99.4096 50.0361V50.168C99.3217 51.0762 99.2631 51.9697 99.2338 52.8486C99.2045 53.7275 99.1752 54.6357 99.1459 55.5732C99.1166 56.6279 99.0727 57.6973 99.0141 58.7812C98.9848 59.8652 98.9115 60.9199 98.7943 61.9453C98.7357 62.502 98.56 62.9268 98.267 63.2197C98.0033 63.542 97.5492 63.7031 96.9047 63.7031ZM127.489 64.2744C127.489 64.6846 127.386 65.0215 127.181 65.2852C126.976 65.5488 126.713 65.7539 126.39 65.9004C126.097 66.0762 125.76 66.1934 125.379 66.252C125.028 66.3398 124.706 66.3838 124.413 66.3838C123.387 66.3838 122.494 66.0908 121.732 65.5049C120.97 64.9189 120.311 64.1572 119.754 63.2197C119.198 62.3115 118.744 61.2715 118.392 60.0996C118.041 58.8984 117.748 57.7119 117.513 56.54C117.279 55.3389 117.103 54.1963 116.986 53.1123C116.869 51.999 116.781 51.0469 116.722 50.2559C116.459 47.5312 116.268 44.7627 116.151 41.9502C116.063 39.1377 116.019 36.3545 116.019 33.6006C116.019 26.0713 116.283 18.6152 116.81 11.2324C116.81 11.1152 116.81 10.9834 116.81 10.8369C116.839 10.6904 116.854 10.5439 116.854 10.3975C116.883 9.78223 116.913 9.0791 116.942 8.28809C116.971 7.46777 117.015 6.66211 117.074 5.87109C117.132 5.08008 117.191 4.3623 117.25 3.71777C117.338 3.04395 117.44 2.5752 117.557 2.31152V2.35547C117.674 1.94531 117.836 1.6377 118.041 1.43262C118.246 1.22754 118.597 1.125 119.095 1.125C120.15 1.125 121.044 1.47656 121.776 2.17969C122.508 2.88281 122.875 3.76172 122.875 4.81641C122.875 5.05078 122.86 5.28516 122.831 5.51953C122.831 5.72461 122.816 5.92969 122.787 6.13477C122.757 6.33984 122.728 6.54492 122.699 6.75C122.699 6.92578 122.699 7.08691 122.699 7.2334C122.611 8.37598 122.538 9.51855 122.479 10.6611C122.45 11.7744 122.406 12.9023 122.347 14.0449C122.201 16.5645 122.084 19.084 121.996 21.6035C121.937 24.0938 121.908 26.6133 121.908 29.1621C121.908 30.2461 121.922 31.667 121.952 33.4248C121.981 35.1826 122.04 37.1016 122.128 39.1816C122.215 41.2324 122.333 43.3564 122.479 45.5537C122.655 47.751 122.875 49.8457 123.138 51.8379C123.402 53.8301 123.71 55.6318 124.061 57.2432C124.442 58.8545 124.881 60.0996 125.379 60.9785C125.643 61.0957 125.892 61.2861 126.127 61.5498C126.39 61.7842 126.61 62.0625 126.786 62.3848C126.991 62.6777 127.152 62.9854 127.269 63.3076C127.416 63.6592 127.489 63.9814 127.489 64.2744ZM150.163 61.6377C150.163 61.96 150.09 62.2383 149.943 62.4727C149.797 62.6777 149.606 62.8535 149.372 63C149.167 63.1172 148.932 63.2051 148.669 63.2637C148.434 63.3223 148.2 63.3516 147.966 63.3516C147.614 63.3516 147.233 63.3076 146.823 63.2197C146.413 63.1318 146.003 63.0146 145.593 62.8682C145.182 62.6924 144.802 62.4873 144.45 62.2529C144.128 61.9893 143.879 61.6963 143.703 61.374C143.527 61.0518 143.395 60.6562 143.307 60.1875C143.249 59.6895 143.19 59.1914 143.132 58.6934C142.839 59.3965 142.487 60.085 142.077 60.7588C141.696 61.4326 141.227 62.0332 140.671 62.5605C140.114 63.0586 139.484 63.4541 138.781 63.7471C138.107 64.0693 137.346 64.2305 136.496 64.2305C135.002 64.2305 133.786 63.8789 132.848 63.1758C131.94 62.4727 131.222 61.5938 130.695 60.5391C130.197 59.4551 129.86 58.2832 129.684 57.0234C129.538 55.7344 129.465 54.5039 129.465 53.332C129.465 52.3652 129.509 51.2666 129.596 50.0361C129.684 48.8057 129.802 47.5459 129.948 46.2568C130.095 44.9678 130.27 43.7227 130.475 42.5215C130.68 41.291 130.9 40.207 131.135 39.2695C131.428 38.1855 131.779 36.999 132.189 35.71C132.629 34.3916 133.171 33.1758 133.815 32.0625C134.489 30.9199 135.309 29.9531 136.276 29.1621C137.243 28.3711 138.4 27.9316 139.748 27.8438C139.66 25.4707 139.528 23.2881 139.352 21.2959C139.206 19.2744 139.045 17.209 138.869 15.0996L138.429 10.2217L138.254 8.46387C138.195 7.99512 138.151 7.52637 138.122 7.05762C138.093 6.55957 138.078 6.07617 138.078 5.60742C138.078 4.93359 138.254 4.46484 138.605 4.20117C138.986 3.9375 139.47 3.80566 140.055 3.80566C141.345 3.80566 142.326 3.99609 143 4.37695C143.674 4.75781 144.142 5.27051 144.406 5.91504C144.699 6.55957 144.86 7.32129 144.889 8.2002C144.919 9.0498 144.933 9.97266 144.933 10.9688C144.933 11.6133 145.007 12.3457 145.153 13.166L145.373 14.792L145.724 19.2744C145.783 19.9775 145.842 20.6807 145.9 21.3838C145.959 22.0869 146.017 22.79 146.076 23.4932L146.999 32.9414L148.757 50.6074L148.888 52.2334C149.006 53.4346 149.108 54.6797 149.196 55.9688C149.313 57.2578 149.518 58.5322 149.811 59.792C149.899 60.1143 149.972 60.4219 150.031 60.7148C150.119 61.0078 150.163 61.3154 150.163 61.6377ZM139.924 35.9297C139.924 35.6074 139.909 35.2559 139.88 34.875C139.88 34.4648 139.88 34.084 139.88 33.7324V32.5459C139.675 32.8389 139.411 33.249 139.089 33.7764C138.766 34.2744 138.517 34.7285 138.342 35.1387C137.873 36.1641 137.448 37.4824 137.067 39.0938C136.686 40.6758 136.349 42.3457 136.056 44.1035C135.793 45.832 135.588 47.5312 135.441 49.2012C135.295 50.8418 135.221 52.2188 135.221 53.332C135.221 53.7422 135.221 54.2109 135.221 54.7383C135.251 55.2656 135.309 55.8076 135.397 56.3643C135.485 56.8916 135.617 57.4043 135.793 57.9023C135.969 58.4004 136.203 58.8105 136.496 59.1328C136.935 58.5762 137.331 57.7266 137.682 56.584C138.034 55.4121 138.327 54.0938 138.561 52.6289C138.825 51.1348 139.045 49.5674 139.221 47.9268C139.396 46.2861 139.528 44.7041 139.616 43.1807C139.733 41.6279 139.806 40.2217 139.836 38.9619C139.894 37.6729 139.924 36.6621 139.924 35.9297Z" fill="#00A3B1"/>
</svg>
