<svg width="32" height="32" viewBox="0 0 32 32" fill="none" xmlns="http://www.w3.org/2000/svg">
<g clip-path="url(#clip0_421_163)">
<path d="M16.3209 12.8597C15.9412 12.8597 15.6334 12.5519 15.6334 12.1722C15.6334 11.4847 15.0759 10.9254 14.3906 10.9254H11.2347C9.80461 10.9254 8.64111 9.76006 8.64111 8.32781C8.64111 6.89556 9.80461 5.73025 11.2347 5.73025H18.8561C19.528 5.73025 20.0746 5.18181 20.0746 4.50763C20.0746 3.8335 19.528 3.28506 18.8561 3.28506H17.9062C16.476 3.28513 15.3125 2.11981 15.3125 0.6875C15.3125 0.307813 15.6203 0 16 0C16.3797 0 16.6875 0.307813 16.6875 0.6875C16.6875 1.36163 17.2342 1.91013 17.9061 1.91013H18.856C20.2861 1.91013 21.4496 3.07538 21.4496 4.50769C21.4496 5.94 20.2861 7.10531 18.856 7.10531H11.2347C10.5627 7.10531 10.0161 7.65375 10.0161 8.32788C10.0161 9.002 10.5627 9.55044 11.2347 9.55044H14.3906C15.834 9.55044 17.0083 10.7266 17.0083 12.1722C17.0084 12.5519 16.7006 12.8597 16.3209 12.8597Z" fill="black"/>
<path d="M4.90396 27.4353L12.4519 19.866L13.4254 20.8368L5.87746 28.4061L4.90396 27.4353Z" fill="black"/>
<path d="M7.53061 30.1946L15.2042 22.4993L16.1777 23.47L8.50411 31.1653L7.53061 30.1946Z" fill="black"/>
<path d="M31.3094 26.805H20.2981C21.4187 26.2075 22.4387 25.4169 23.3112 24.4562C23.89 23.8194 24.3887 23.1244 24.8012 22.3856H27.4969C29.9781 22.3856 31.9969 20.3637 31.9969 17.8781C31.9969 15.3925 29.9781 13.3706 27.4969 13.3706H4.55999C4.18061 13.3706 3.87249 13.6781 3.87249 14.0581V16.92C3.87249 18.7556 4.32311 20.5644 5.17686 22.1737C4.30124 23.57 4.01374 25.2337 4.31499 26.805H0.690613C0.311238 26.805 0.00311279 27.1125 0.00311279 27.4925V29.4025C0.00311279 29.7819 0.311238 30.09 0.690613 30.09C1.36249 30.09 1.90936 30.6381 1.90936 31.3125C1.90936 31.6925 2.21686 32 2.59686 32H29.4031C29.7831 32 30.0906 31.6925 30.0906 31.3125C30.0906 30.6381 30.6375 30.09 31.3094 30.09C31.6887 30.09 31.9969 29.7819 31.9969 29.4025V27.4925C31.9969 27.1125 31.6887 26.805 31.3094 26.805ZM26.2212 16.92V14.7456H27.4969C29.22 14.7456 30.6219 16.1506 30.6219 17.8781C30.6219 19.6056 29.22 21.0106 27.4969 21.0106H25.4506C25.9562 19.72 26.2212 18.3356 26.2212 16.92ZM5.24749 14.7456H24.8462V16.92C24.8462 21.6844 21.4987 25.6819 16.9244 26.5625C17.2225 24.6119 16.6231 22.5494 15.1275 21.05C14.5225 20.4437 13.8187 19.9744 13.0512 19.6556C12.2844 19.3375 11.455 19.1706 10.5994 19.1706C8.91561 19.1706 7.33124 19.8175 6.12874 20.9937C5.54999 19.7219 5.24749 18.33 5.24749 16.92V14.7456ZM10.5994 30.625C9.25686 30.625 7.99436 30.1012 7.04499 29.1494C5.08374 27.1844 5.08374 23.9869 7.04499 22.0212C7.99436 21.07 9.25686 20.5456 10.5994 20.5456C11.9419 20.5456 13.2044 21.07 14.1537 22.0212C15.1344 23.0037 15.625 24.295 15.625 25.5856C15.625 26.8762 15.1344 28.1669 14.1537 29.1494C13.2044 30.1012 11.9419 30.625 10.5994 30.625ZM3.19186 30.625C2.95061 29.7444 2.25686 29.05 1.37811 28.8075V28.18H4.74374C5.05311 28.8844 5.49624 29.5444 6.07124 30.1206C6.25124 30.3012 6.44061 30.4694 6.63749 30.625H3.19186ZM30.6219 28.8075C29.7431 29.05 29.0494 29.7444 28.8081 30.625H14.5612C14.7581 30.4694 14.9475 30.3012 15.1275 30.1206C15.7025 29.5444 16.145 28.8844 16.455 28.18H30.6219V28.8075Z" fill="black"/>
</g>
<defs>
<clipPath id="clip0_421_163">
<rect width="32" height="32" fill="white"/>
</clipPath>
</defs>
</svg>
