<svg width="32" height="32" viewBox="0 0 32 32" fill="none" xmlns="http://www.w3.org/2000/svg">
<path d="M26.4 24.0834H27.2C27.6419 24.0834 28 23.7337 28 23.3022V2.448C28 2.01648 27.6419 1.66675 27.2 1.66675H8C5.79437 1.66675 4 3.41907 4 5.573V26.4272C4 28.5811 5.79437 30.3334 8 30.3334H27.2C27.6419 30.3334 28 29.9837 28 29.5522C28 29.1206 27.6419 28.7709 27.2 28.7709H26.4V24.0834ZM26.4 3.22925V22.5209C25.4544 22.5209 10.9619 22.5209 10.4 22.5209V3.22925H26.4ZM8 3.22925H8.8V22.5209H8C7.10021 22.5209 6.26896 22.8127 5.6 23.3042V5.573C5.6 4.28068 6.67667 3.22925 8 3.22925ZM5.6 26.4272C5.6 25.1348 6.67667 24.0834 8 24.0834H24.8V25.6459H9.6C9.15812 25.6459 8.8 25.9956 8.8 26.4272C8.8 26.8587 9.15812 27.2084 9.6 27.2084H24.8V28.7709H8C6.67667 28.7709 5.6 27.7195 5.6 26.4272Z" fill="black"/>
</svg>
