<svg width="32" height="32" viewBox="0 0 32 32" fill="none" xmlns="http://www.w3.org/2000/svg">
<path d="M26.0498 18.0181C29.8138 13.9156 29.605 7.02788 25.5789 3.16214C21.7136 -0.863381 14.8249 -1.07294 10.723 2.69137L8.49655 0.46489C8.22783 0.196234 7.79239 0.196234 7.52368 0.46489C0.193236 7.62279 2.68862 20.4413 12.1294 24.3326C12.2447 26.7084 11.6254 28.8734 9.98179 30.6242H6.45987C6.07996 30.6242 5.77197 30.9322 5.77197 31.3121C5.77197 31.692 6.07996 32 6.45987 32H25.5321C25.912 32 26.22 31.692 26.22 31.3121C26.22 30.9322 25.912 30.6242 25.5321 30.6242H22.0103C20.6697 29.1889 19.9141 27.3425 19.8652 25.3765C22.9436 24.9639 25.9155 23.5782 28.2762 21.2174C28.4052 21.0884 28.4777 20.9134 28.4777 20.731C28.4777 20.5486 28.4052 20.3736 28.2762 20.2446L26.0498 18.0181ZM24.6061 4.13496C28.2851 7.66519 28.2856 14.0172 24.606 17.5473C21.076 21.2261 14.7238 21.2267 11.1938 17.5472C7.49603 13.8495 7.49603 7.83273 11.1938 4.13496C14.724 0.456135 21.076 0.455572 24.6061 4.13496ZM20.2331 30.6242H11.759C12.9631 28.9597 13.564 26.9254 13.5052 24.8388C15.124 25.3434 16.8096 25.5652 18.4926 25.4957C18.5553 27.3605 19.1605 29.1308 20.2331 30.6242ZM10.0436 21.6053C3.93147 17.15 2.62671 7.76 8.02253 1.93662L9.75034 3.66443C5.99379 7.92472 6.15013 14.4494 10.2209 18.5202C14.0863 22.546 20.975 22.7551 25.0769 18.991L26.8046 20.7187C24.515 23.9401 15.7164 25.9609 10.0436 21.6053Z" fill="black"/>
<path d="M11.265 8.82574C14.6951 8.48004 16.8543 4.8303 15.517 1.65796C15.0704 1.77303 14.634 1.92049 14.2107 2.09915C15.6338 5.27299 12.3363 8.57222 9.16275 7.1539C8.98358 7.58002 8.83681 8.01665 8.72256 8.46003C9.52121 8.7891 10.4035 8.91786 11.265 8.82574Z" fill="black"/>
<path d="M18.1465 17.5808C17.6414 16.7748 16.8136 16.2228 15.8753 16.0665C15.2163 15.9566 14.757 15.3292 14.8516 14.6678C15.0894 13.156 13.8396 11.7046 12.3058 11.7326C11.6189 11.7326 10.9732 12 10.4874 12.4858L8.96245 14.0107C9.1251 14.4716 9.32472 14.9222 9.56061 15.3582L11.4602 13.4586C11.9263 12.9924 12.685 12.9924 13.1513 13.4586C13.416 13.7234 13.5425 14.1027 13.4895 14.4733C13.2901 15.8684 14.259 17.1919 15.649 17.4236C16.7819 17.5938 17.5399 18.8031 17.199 19.8969L17.0835 20.2899C17.5552 20.3306 18.0395 20.3361 18.513 20.305C18.7891 19.3876 18.6554 18.3926 18.1465 17.5808Z" fill="black"/>
<path d="M27.3817 10.6544L26.5264 10.5428C24.4493 10.2718 22.4373 11.1863 21.2753 12.9291C20.7405 13.7629 19.4957 13.8865 18.8077 13.1735C18.1825 12.5484 18.1825 11.5312 18.8077 10.9061L19.369 10.3448C20.1615 9.55231 20.5246 8.41916 20.3404 7.31358C20.0339 5.47526 20.3344 3.58767 21.1862 1.9399C20.7492 1.77881 20.2996 1.65017 19.8406 1.55518C18.9477 3.40637 18.6433 5.49928 18.9833 7.53977C19.0946 8.20803 18.8751 8.89293 18.3961 9.3719L17.8348 9.93322C15.8703 11.9126 17.4655 15.2738 20.2349 15.0043C21.1265 14.9161 21.923 14.4378 22.42 13.6922C23.2892 12.3883 24.7949 11.7044 26.3483 11.907L27.31 12.0324C27.3664 11.5801 27.3918 11.1157 27.3817 10.6544Z" fill="black"/>
</svg>
