<svg width="138" height="24" viewBox="0 0 138 24" fill="none" xmlns="http://www.w3.org/2000/svg">
<g clip-path="url(#clip0_474_3256)">
<path fill-rule="evenodd" clip-rule="evenodd" d="M24.2634 8.13309C24.1703 7.99751 24.0153 7.92795 23.8591 7.92795H14.9618L19.3985 0.836221C19.5127 0.654107 19.5191 0.40484 19.3805 0.204978C19.2864 0.0692321 19.1298 0 18.9729 0H11.3112C10.542 0 9.82318 0.412515 9.39231 1.10116L0.68496 15.0198C0.571049 15.2021 0.566256 15.4514 0.703492 15.6512C0.796473 15.7867 0.951443 15.8561 1.10785 15.8561H10.0007L5.56345 22.9496C5.48357 23.0775 5.45913 23.2385 5.49555 23.392C5.55163 23.6297 5.76219 23.7858 5.98922 23.7858H13.6464C14.4215 23.7858 15.1457 23.3701 15.5796 22.6763L19.8451 15.8561L24.2816 8.76433C24.3957 8.58222 24.4005 8.33263 24.2634 8.13309Z" fill="#4E48E0"/>
<path fill-rule="evenodd" clip-rule="evenodd" d="M19.8461 15.8545L15.5796 22.6762C15.1457 23.3701 14.4214 23.7856 13.6465 23.7856H5.98929C5.76227 23.7856 5.5517 23.6298 5.49562 23.392C5.4592 23.2385 5.48364 23.0775 5.56352 22.9496L10.0015 15.8545H19.8461Z" fill="#4E48E0"/>
<path fill-rule="evenodd" clip-rule="evenodd" d="M14.956 7.92798H23.8591C24.0153 7.92798 24.1703 7.99753 24.2634 8.13296C24.4007 8.33266 24.3956 8.58209 24.2818 8.76436L19.8454 15.8561H9.99701L14.956 7.92798Z" fill="#1C81C1"/>
<path fill-rule="evenodd" clip-rule="evenodd" d="M1.10781 15.8561C0.951562 15.8561 0.796593 15.7867 0.703612 15.6512C0.566216 15.4514 0.571009 15.2021 0.685079 15.02L9.39243 1.10116C9.82314 0.412515 10.5421 0 11.3112 0H18.9729C19.1298 0 19.2865 0.069392 19.3806 0.204978C19.5191 0.40484 19.5127 0.654107 19.3986 0.836381L10.0016 15.8561H1.10781Z" fill="#5CC4CD"/>
<path fill-rule="evenodd" clip-rule="evenodd" d="M77.1564 13.1174H77.3857H81.9344C82.1007 13.1174 82.5949 13.1198 82.5949 13.1198C82.5949 13.1198 82.5947 13.0877 82.5669 12.9577C82.4678 12.4922 82.2889 12.0663 81.9769 11.7034C81.2516 10.8604 79.9641 10.5729 78.8631 11.0168C77.9185 11.3975 77.4032 12.1338 77.1564 13.1174ZM81.0337 14.9672C79.8048 14.9672 78.5762 14.9699 77.3475 14.964C77.1871 14.963 77.1569 14.9966 77.1999 15.1542C77.5219 16.3299 78.458 17.1364 79.6627 17.2673C81.0182 17.4146 82.2595 17.0744 83.4202 16.3899L83.6277 16.2676L84.6072 18.0063C84.6072 18.0063 84.5793 18.022 84.4759 18.0909C83.0163 19.0672 81.4093 19.4896 79.66 19.3875C78.8794 19.3419 78.1287 19.1742 77.4238 18.8314C76.3816 18.3247 75.6144 17.5398 75.1555 16.4768C74.5175 14.9988 74.4794 13.489 75.0469 11.9846C75.7756 10.0523 77.5523 8.84949 79.7112 8.78313C80.8242 8.74892 81.8809 8.95549 82.8287 9.56403C84.1674 10.4234 84.8018 11.7013 84.9633 13.2479C85.016 13.7535 84.989 14.2571 84.9453 14.7625C84.9295 14.9459 84.9247 14.9704 84.9247 14.9704C84.9247 14.9704 82.2558 14.9672 81.0337 14.9672Z" fill="#3A3945"/>
<path fill-rule="evenodd" clip-rule="evenodd" d="M105.374 13.1174H105.603H110.152C110.318 13.1174 110.812 13.1198 110.812 13.1198C110.812 13.1198 110.812 13.0877 110.785 12.9577C110.685 12.4922 110.506 12.0663 110.194 11.7034C109.469 10.8604 108.182 10.5729 107.081 11.0168C106.136 11.3975 105.621 12.1338 105.374 13.1174ZM109.251 14.9672C108.022 14.9672 106.794 14.9699 105.565 14.964C105.405 14.963 105.374 14.9966 105.417 15.1542C105.739 16.3299 106.675 17.1364 107.88 17.2673C109.236 17.4146 110.477 17.0744 111.638 16.3899L111.845 16.2676L112.825 18.0063C112.825 18.0063 112.797 18.022 112.693 18.0909C111.234 19.0672 109.627 19.4896 107.878 19.3875C107.097 19.3419 106.346 19.1742 105.641 18.8314C104.599 18.3247 103.832 17.5398 103.373 16.4768C102.735 14.9988 102.697 13.489 103.265 11.9846C103.993 10.0523 105.77 8.84949 107.929 8.78313C109.042 8.74892 110.098 8.95549 111.046 9.56403C112.385 10.4234 113.019 11.7013 113.181 13.2479C113.234 13.7535 113.207 14.2571 113.163 14.7625C113.147 14.9459 113.142 14.9704 113.142 14.9704C113.142 14.9704 110.473 14.9672 109.251 14.9672Z" fill="#3A3945"/>
<path fill-rule="evenodd" clip-rule="evenodd" d="M98.0816 8.78149C99.1984 8.80292 100.315 9.19449 101.22 10.1148C101.324 10.2203 101.36 10.2565 101.36 10.2565L100.094 11.7997C100.094 11.7997 100.074 11.7812 99.9726 11.6848C99.3869 11.1315 98.7015 10.7953 97.8838 10.764C97.6273 10.7542 97.3779 10.7884 97.1441 10.9002C96.5118 11.2025 96.4191 11.9451 96.9564 12.3942C97.1342 12.5427 97.3434 12.6313 97.5562 12.7146C98.3219 13.0133 99.1001 13.2817 99.8364 13.6516C100.375 13.9219 100.858 14.2644 101.198 14.7749C101.831 15.7268 101.725 17.1607 100.963 18.0744C100.296 18.8732 99.4115 19.2525 98.4067 19.3738C96.9713 19.5472 95.6524 19.2466 94.4998 18.3382C94.205 18.1059 93.9516 17.8324 93.72 17.5372C93.6514 17.4497 93.6316 17.4218 93.6316 17.4218L95.0078 15.9396C95.0078 15.9396 95.0249 15.9599 95.1153 16.0686C95.6686 16.7339 96.3643 17.1688 97.2219 17.322C97.7118 17.4093 98.1947 17.3912 98.6445 17.148C99.0996 16.9023 99.2979 16.4693 99.1567 16.043C99.0795 15.8101 98.9141 15.647 98.7167 15.5122C98.4532 15.3322 98.1559 15.2218 97.8635 15.1029C97.2371 14.8483 96.5969 14.6269 95.9862 14.3349C95.1733 13.9464 94.5614 13.37 94.337 12.4645C93.9788 11.0206 94.7255 9.64202 96.1456 9.09424C96.7212 8.87215 97.3176 8.78277 98.0816 8.78149Z" fill="#3A3945"/>
<path fill-rule="evenodd" clip-rule="evenodd" d="M57.5309 17.0363C55.9144 17.0363 54.5993 15.7203 54.5993 14.1024C54.5993 12.4846 55.9144 11.1685 57.5309 11.1685C59.1474 11.1685 60.4626 12.4846 60.4626 14.1024C60.4626 15.7203 59.1474 17.0363 57.5309 17.0363ZM60.7231 8.78027L60.4833 10.0085C59.7377 9.2374 58.6227 8.78891 57.5309 8.78891C54.6034 8.78891 52.2217 11.1725 52.2217 14.1024C52.2217 17.0323 54.6034 19.416 57.5309 19.416C58.6227 19.416 59.6882 18.9799 60.4833 18.1965L60.7231 19.4207H62.8611V8.78027H60.7231Z" fill="#3A3945"/>
<path fill-rule="evenodd" clip-rule="evenodd" d="M131.801 17.0363C130.184 17.0363 128.869 15.7202 128.869 14.1023C128.869 12.4845 130.184 11.1685 131.801 11.1685C133.417 11.1685 134.732 12.4845 134.732 14.1023C134.732 15.7202 133.417 17.0363 131.801 17.0363ZM134.753 5.22925V10.0085C134.002 9.3181 132.892 8.78886 131.801 8.78886C128.873 8.78886 126.491 11.1725 126.491 14.1023C126.491 17.0323 128.873 19.4159 131.801 19.4159C132.892 19.4159 133.937 18.9137 134.753 18.1963L134.993 19.4207H137.131V5.22925H134.753Z" fill="#3A3945"/>
<path fill-rule="evenodd" clip-rule="evenodd" d="M65.467 19.4208H67.8447V9.28076H65.467V19.4208Z" fill="#3A3945"/>
<path fill-rule="evenodd" clip-rule="evenodd" d="M120.019 8.78817C119.138 8.78817 118.129 9.34699 117.604 10.024L117.204 8.77954H115.226V13.4434V19.42H117.604H117.623V13.4434C117.623 12.1887 118.698 11.1678 120.019 11.1678C121.34 11.1678 122.415 12.1887 122.415 13.4434V19.42H124.812V13.4434C124.812 10.8766 122.662 8.78817 120.019 8.78817Z" fill="#3A3945"/>
<path fill-rule="evenodd" clip-rule="evenodd" d="M70.3222 19.4208H72.6999V5.22949H70.3222V19.4208Z" fill="#3A3945"/>
<path fill-rule="evenodd" clip-rule="evenodd" d="M68.2085 6.51035C68.2085 5.65238 67.5132 4.95654 66.6559 4.95654C65.7985 4.95654 65.1033 5.65238 65.1033 6.51035C65.1033 7.36847 65.7985 8.06415 66.6559 8.06415C67.5132 8.06415 68.2085 7.36847 68.2085 6.51035Z" fill="#3A3945"/>
<path fill-rule="evenodd" clip-rule="evenodd" d="M91.3789 8.7985C90.5862 8.86166 89.8652 9.31398 89.242 9.75448L89.0023 8.78027H86.8642V13.6698C86.8427 13.8576 86.8304 14.0442 86.8304 14.2282V19.3536H86.8642V19.4207H89.242V19.3536H89.2758V14.2282C89.2758 13.0979 90.2403 11.3444 91.5726 11.2384C91.9033 11.2125 92.2172 11.253 92.6594 11.3786L93.3284 9.02458C92.8412 8.88596 92.179 8.73518 91.3789 8.7985Z" fill="#3A3945"/>
<path fill-rule="evenodd" clip-rule="evenodd" d="M45.7376 8.78442C44.3606 8.78442 43.1219 9.38705 42.2696 10.3417C41.4171 9.38705 40.1785 8.78442 38.8015 8.78442C36.2367 8.78442 34.15 10.8729 34.15 13.4396V19.4163H36.5278V13.4396C36.5278 12.185 37.5477 11.1641 38.8015 11.1641C40.0553 11.1641 41.0752 12.185 41.0752 13.4396V19.4163H41.0861H42.2696H43.453H43.4638V13.4396C43.4638 12.185 44.4837 11.1641 45.7376 11.1641C46.9914 11.1641 48.0113 12.185 48.0113 13.4396V19.4163H50.389V13.4396C50.389 10.8729 48.3024 8.78442 45.7376 8.78442Z" fill="#3A3945"/>
</g>
<defs>
<clipPath id="clip0_474_3256">
<rect width="136.8" height="24" fill="white" transform="translate(0.599976)"/>
</clipPath>
</defs>
</svg>
