<svg width="263" height="34" viewBox="0 0 263 34" fill="none" xmlns="http://www.w3.org/2000/svg">
<g clip-path="url(#clip0_401_1466)">
<path fill-rule="evenodd" clip-rule="evenodd" d="M29.5793 12.1664C29.4629 11.9969 29.2692 11.9099 29.0739 11.9099H17.9522L23.4982 3.04528C23.641 2.81763 23.649 2.50605 23.4756 2.25622C23.358 2.08654 23.1623 2 22.9662 2H13.389C12.4275 2 11.529 2.51564 10.9904 3.37645L0.10623 20.7748C-0.0361578 21.0026 -0.0421489 21.3142 0.129396 21.5641C0.245622 21.7333 0.439334 21.8201 0.634842 21.8201H11.7509L6.20434 30.6869C6.10449 30.8468 6.07394 31.0481 6.11947 31.24C6.18957 31.5372 6.45277 31.7322 6.73655 31.7322H16.3081C17.2768 31.7322 18.1821 31.2126 18.7245 30.3454L24.0563 21.8201L29.6021 12.9554C29.7447 12.7278 29.7507 12.4158 29.5793 12.1664Z" fill="#4E48E0"/>
<path fill-rule="evenodd" clip-rule="evenodd" d="M24.0576 21.8181L18.7246 30.3452C18.1822 31.2126 17.2767 31.7321 16.3082 31.7321H6.73664C6.45286 31.7321 6.18965 31.5372 6.11956 31.24C6.07403 31.0481 6.10458 30.8469 6.20443 30.687L11.752 21.8181H24.0576Z" fill="#4E48E0"/>
<path fill-rule="evenodd" clip-rule="evenodd" d="M17.945 11.9099H29.0739C29.2692 11.9099 29.4629 11.9969 29.5793 12.1661C29.7509 12.4158 29.7445 12.7275 29.6023 12.9554L24.0567 21.8201H11.7463L17.945 11.9099Z" fill="#1C81C1"/>
<path fill-rule="evenodd" clip-rule="evenodd" d="M0.634792 21.8201C0.439483 21.8201 0.245772 21.7333 0.129545 21.5641C-0.0421989 21.3142 -0.0362078 21.0026 0.10638 20.775L10.9906 3.37645C11.529 2.51564 12.4276 2 13.389 2H22.9661C23.1622 2 23.3581 2.08674 23.4758 2.25622C23.6489 2.50605 23.6409 2.81763 23.4983 3.04548L11.752 21.8201H0.634792Z" fill="#5CC4CD"/>
<path fill-rule="evenodd" clip-rule="evenodd" d="M95.6955 18.3967H95.9821H101.668C101.876 18.3967 102.494 18.3997 102.494 18.3997C102.494 18.3997 102.493 18.3595 102.459 18.197C102.335 17.6152 102.111 17.0828 101.721 16.6291C100.814 15.5755 99.2051 15.2161 97.8289 15.7709C96.6481 16.2468 96.004 17.1672 95.6955 18.3967ZM100.542 20.7089C99.006 20.7089 97.4703 20.7123 95.9343 20.7049C95.7338 20.7037 95.6961 20.7457 95.7498 20.9427C96.1524 22.4123 97.3225 23.4204 98.8284 23.5841C100.523 23.7682 102.074 23.3429 103.525 22.4873L103.785 22.3344L105.009 24.5079C105.009 24.5079 104.974 24.5275 104.845 24.6136C103.02 25.834 101.012 26.362 98.825 26.2343C97.8493 26.1773 96.9109 25.9677 96.0298 25.5392C94.7269 24.9058 93.768 23.9247 93.1944 22.596C92.3968 20.7485 92.3493 18.8612 93.0586 16.9807C93.9695 14.5654 96.1904 13.0618 98.8889 12.9789C100.28 12.9361 101.601 13.1943 102.786 13.955C104.459 15.0292 105.252 16.6265 105.454 18.5598C105.52 19.1918 105.486 19.8213 105.432 20.4531C105.412 20.6823 105.406 20.7129 105.406 20.7129C105.406 20.7129 102.07 20.7089 100.542 20.7089Z" fill="#3A3945"/>
<path fill-rule="evenodd" clip-rule="evenodd" d="M130.968 18.3967H131.254H136.94C137.148 18.3967 137.766 18.3997 137.766 18.3997C137.766 18.3997 137.765 18.3595 137.731 18.197C137.607 17.6152 137.383 17.0828 136.993 16.6291C136.086 15.5755 134.477 15.2161 133.101 15.7709C131.92 16.2468 131.276 17.1672 130.968 18.3967ZM135.814 20.7089C134.278 20.7089 132.742 20.7123 131.206 20.7049C131.006 20.7037 130.968 20.7457 131.022 20.9427C131.424 22.4123 132.594 23.4204 134.1 23.5841C135.795 23.7682 137.346 23.3429 138.797 22.4873L139.056 22.3344L140.281 24.5079C140.281 24.5079 140.246 24.5275 140.117 24.6136C138.292 25.834 136.284 26.362 134.097 26.2343C133.121 26.1773 132.183 25.9677 131.302 25.5392C129.999 24.9058 129.04 23.9247 128.466 22.596C127.669 20.7485 127.621 18.8612 128.331 16.9807C129.241 14.5654 131.462 13.0618 134.161 12.9789C135.552 12.9361 136.873 13.1943 138.058 13.955C139.731 15.0292 140.524 16.6265 140.726 18.5598C140.792 19.1918 140.758 19.8213 140.703 20.4531C140.684 20.6823 140.678 20.7129 140.678 20.7129C140.678 20.7129 137.342 20.7089 135.814 20.7089Z" fill="#3A3945"/>
<path fill-rule="evenodd" clip-rule="evenodd" d="M121.852 12.9769C123.248 13.0037 124.644 13.4932 125.775 14.6436C125.905 14.7755 125.95 14.8207 125.95 14.8207L124.367 16.7497C124.367 16.7497 124.343 16.7265 124.216 16.606C123.484 15.9145 122.627 15.4942 121.605 15.455C121.284 15.4428 120.972 15.4856 120.68 15.6253C119.89 16.0032 119.774 16.9314 120.446 17.4928C120.668 17.6785 120.929 17.7892 121.195 17.8933C122.152 18.2667 123.125 18.6022 124.046 19.0645C124.719 19.4025 125.323 19.8306 125.747 20.4687C126.538 21.6585 126.407 23.4509 125.454 24.5931C124.62 25.5916 123.514 26.0657 122.258 26.2174C120.464 26.434 118.816 26.0583 117.375 24.9229C117.006 24.6325 116.689 24.2905 116.4 23.9216C116.314 23.8122 116.289 23.7773 116.289 23.7773L118.01 21.9245C118.01 21.9245 118.031 21.9499 118.144 22.0858C118.836 22.9174 119.705 23.4611 120.777 23.6525C121.39 23.7617 121.993 23.7391 122.556 23.4351C123.125 23.1279 123.372 22.5867 123.196 22.0538C123.099 21.7626 122.893 21.5588 122.646 21.3903C122.317 21.1653 121.945 21.0274 121.579 20.8787C120.796 20.5605 119.996 20.2837 119.233 19.9187C118.217 19.4331 117.452 18.7126 117.171 17.5807C116.723 15.7758 117.657 14.0526 119.432 13.3679C120.152 13.0903 120.897 12.9785 121.852 12.9769Z" fill="#3A3945"/>
<path fill-rule="evenodd" clip-rule="evenodd" d="M71.1637 23.2953C69.1431 23.2953 67.4991 21.6502 67.4991 19.6278C67.4991 17.6056 69.1431 15.9606 71.1637 15.9606C73.1843 15.9606 74.8282 17.6056 74.8282 19.6278C74.8282 21.6502 73.1843 23.2953 71.1637 23.2953ZM75.1539 12.9752L74.8542 14.5106C73.9222 13.5466 72.5284 12.986 71.1637 12.986C67.5043 12.986 64.5272 15.9656 64.5272 19.6278C64.5272 23.2903 67.5043 26.2698 71.1637 26.2698C72.5284 26.2698 73.8603 25.7248 74.8542 24.7455L75.1539 26.2758H77.8263V12.9752H75.1539Z" fill="#3A3945"/>
<path fill-rule="evenodd" clip-rule="evenodd" d="M164.001 23.2953C161.98 23.2953 160.336 21.6502 160.336 19.6278C160.336 17.6056 161.98 15.9606 164.001 15.9606C166.021 15.9606 167.665 17.6056 167.665 19.6278C167.665 21.6502 166.021 23.2953 164.001 23.2953ZM167.691 8.5365V14.5106C166.752 13.6476 165.366 12.986 164.001 12.986C160.341 12.986 157.364 15.9656 157.364 19.6278C157.364 23.2903 160.341 26.2698 164.001 26.2698C165.366 26.2698 166.671 25.6421 167.691 24.7453L167.991 26.2758H170.663V8.5365H167.691Z" fill="#3A3945"/>
<path fill-rule="evenodd" clip-rule="evenodd" d="M81.0837 26.2759H84.0559V13.6008H81.0837V26.2759Z" fill="#3A3945"/>
<path fill-rule="evenodd" clip-rule="evenodd" d="M149.274 12.9852C148.173 12.9852 146.911 13.6837 146.255 14.5299L145.755 12.9744H143.282V18.8041V26.275H146.255H146.279V18.8041C146.279 17.2358 147.622 15.9597 149.274 15.9597C150.925 15.9597 152.268 17.2358 152.268 18.8041V26.275H155.265V18.8041C155.265 15.5958 152.577 12.9852 149.274 12.9852Z" fill="#3A3945"/>
<path fill-rule="evenodd" clip-rule="evenodd" d="M87.1527 26.2759H90.1249V8.53674H87.1527V26.2759Z" fill="#3A3945"/>
<path fill-rule="evenodd" clip-rule="evenodd" d="M84.5106 10.1378C84.5106 9.06535 83.6415 8.19556 82.5699 8.19556C81.4981 8.19556 80.6292 9.06535 80.6292 10.1378C80.6292 11.2105 81.4981 12.0801 82.5699 12.0801C83.6415 12.0801 84.5106 11.2105 84.5106 10.1378Z" fill="#3A3945"/>
<path fill-rule="evenodd" clip-rule="evenodd" d="M113.474 12.9981C112.483 13.0771 111.582 13.6425 110.802 14.1931L110.503 12.9753H107.83V19.0873C107.803 19.3219 107.788 19.5552 107.788 19.7852V26.192H107.83V26.2759H110.802V26.192H110.845V19.7852C110.845 18.3724 112.05 16.1805 113.716 16.048C114.129 16.0156 114.522 16.0662 115.074 16.2233L115.91 13.2807C115.302 13.1075 114.474 12.919 113.474 12.9981Z" fill="#3A3945"/>
<path fill-rule="evenodd" clip-rule="evenodd" d="M56.422 12.9806C54.7007 12.9806 53.1525 13.7339 52.087 14.9272C51.0214 13.7339 49.4731 12.9806 47.7519 12.9806C44.5459 12.9806 41.9376 15.5912 41.9376 18.7996V26.2704H44.9097V18.7996C44.9097 17.2312 46.1846 15.9551 47.7519 15.9551C49.3192 15.9551 50.5941 17.2312 50.5941 18.7996V26.2704H50.6076H52.087H53.5662H53.5798V18.7996C53.5798 17.2312 54.8547 15.9551 56.422 15.9551C57.9892 15.9551 59.2641 17.2312 59.2641 18.7996V26.2704H62.2363V18.7996C62.2363 15.5912 59.628 12.9806 56.422 12.9806Z" fill="#3A3945"/>
</g>
<path d="M180.414 18.4142C179.633 17.6332 179.633 16.3668 180.414 15.5858L185 11L185 23L180.414 18.4142Z" fill="#00A3B1"/>
<g clip-path="url(#clip1_401_1466)">
<path d="M185 3C185 1.89543 185.895 1 187 1H260.696C262.397 1 263.321 2.98937 262.224 4.28974L252.588 15.7103C251.96 16.4552 251.96 17.5448 252.588 18.2897L262.224 29.7103C263.321 31.0106 262.397 33 260.696 33H187C185.895 33 185 32.1046 185 31V3Z" fill="#00A3B1"/>
<path d="M199.256 13.5341V15.3523H194V13.5341H199.256ZM195.193 11.4432H197.614V19.5796C197.614 19.8031 197.648 19.9773 197.716 20.1023C197.784 20.2235 197.879 20.3087 198 20.358C198.125 20.4072 198.269 20.4319 198.432 20.4319C198.545 20.4319 198.659 20.4224 198.773 20.4034C198.886 20.3807 198.973 20.3637 199.034 20.3523L199.415 22.1534C199.294 22.1913 199.123 22.2349 198.903 22.2841C198.684 22.3372 198.417 22.3694 198.102 22.3807C197.519 22.4034 197.008 22.3258 196.568 22.1478C196.133 21.9697 195.794 21.6932 195.551 21.3182C195.309 20.9432 195.189 20.4697 195.193 19.8978V11.4432Z" fill="white"/>
<path d="M205.002 22.4319C204.119 22.4319 203.356 22.2444 202.712 21.8694C202.072 21.4906 201.578 20.964 201.229 20.2898C200.881 19.6118 200.706 18.8258 200.706 17.9319C200.706 17.0303 200.881 16.2425 201.229 15.5682C201.578 14.8902 202.072 14.3637 202.712 13.9887C203.356 13.6099 204.119 13.4205 205.002 13.4205C205.884 13.4205 206.646 13.6099 207.286 13.9887C207.93 14.3637 208.426 14.8902 208.775 15.5682C209.123 16.2425 209.297 17.0303 209.297 17.9319C209.297 18.8258 209.123 19.6118 208.775 20.2898C208.426 20.964 207.93 21.4906 207.286 21.8694C206.646 22.2444 205.884 22.4319 205.002 22.4319ZM205.013 20.5569C205.415 20.5569 205.75 20.4432 206.019 20.2159C206.288 19.9849 206.49 19.6705 206.627 19.2728C206.767 18.875 206.837 18.4224 206.837 17.9148C206.837 17.4072 206.767 16.9546 206.627 16.5569C206.49 16.1591 206.288 15.8447 206.019 15.6137C205.75 15.3826 205.415 15.2671 205.013 15.2671C204.608 15.2671 204.267 15.3826 203.99 15.6137C203.718 15.8447 203.511 16.1591 203.371 16.5569C203.235 16.9546 203.167 17.4072 203.167 17.9148C203.167 18.4224 203.235 18.875 203.371 19.2728C203.511 19.6705 203.718 19.9849 203.99 20.2159C204.267 20.4432 204.608 20.5569 205.013 20.5569Z" fill="white"/>
<path d="M211.191 25.5341V13.5341H213.577V15H213.685C213.792 14.7652 213.945 14.5265 214.146 14.2841C214.35 14.0379 214.615 13.8334 214.941 13.6705C215.271 13.5038 215.68 13.4205 216.168 13.4205C216.805 13.4205 217.392 13.5872 217.93 13.9205C218.468 14.25 218.898 14.7481 219.22 15.4148C219.542 16.0777 219.702 16.9091 219.702 17.9091C219.702 18.8826 219.545 19.7046 219.231 20.375C218.92 21.0417 218.496 21.5474 217.958 21.8921C217.424 22.233 216.826 22.4034 216.163 22.4034C215.693 22.4034 215.293 22.3258 214.964 22.1705C214.638 22.0152 214.371 21.8201 214.163 21.5853C213.954 21.3466 213.795 21.1061 213.685 20.8637H213.612V25.5341H211.191ZM213.56 17.8978C213.56 18.4167 213.632 18.8694 213.776 19.2557C213.92 19.6421 214.129 19.9432 214.401 20.1591C214.674 20.3712 215.006 20.4773 215.396 20.4773C215.79 20.4773 216.123 20.3694 216.396 20.1534C216.668 19.9337 216.875 19.6307 217.015 19.2444C217.159 18.8542 217.231 18.4053 217.231 17.8978C217.231 17.394 217.161 16.9508 217.021 16.5682C216.881 16.1856 216.674 15.8864 216.401 15.6705C216.129 15.4546 215.793 15.3466 215.396 15.3466C215.002 15.3466 214.668 15.4508 214.396 15.6591C214.127 15.8675 213.92 16.1629 213.776 16.5455C213.632 16.9281 213.56 17.3788 213.56 17.8978Z" fill="white"/>
<path d="M230.699 10.625V22.2614H228.239V12.9603H228.171L225.506 14.6307V12.4489L228.387 10.625H230.699Z" fill="white"/>
<path d="M238.347 22.5171C237.37 22.5133 236.529 22.2728 235.824 21.7955C235.124 21.3182 234.584 20.6269 234.205 19.7216C233.83 18.8163 233.645 17.7273 233.648 16.4546C233.648 15.1856 233.836 14.1042 234.211 13.2103C234.59 12.3163 235.129 11.6364 235.83 11.1705C236.535 10.7008 237.374 10.4659 238.347 10.4659C239.321 10.4659 240.158 10.7008 240.859 11.1705C241.563 11.6402 242.105 12.322 242.484 13.2159C242.862 14.1061 243.05 15.1856 243.046 16.4546C243.046 17.7311 242.857 18.822 242.478 19.7273C242.103 20.6326 241.565 21.3239 240.864 21.8012C240.163 22.2784 239.324 22.5171 238.347 22.5171ZM238.347 20.4773C239.014 20.4773 239.546 20.1421 239.944 19.4716C240.341 18.8012 240.538 17.7955 240.535 16.4546C240.535 15.572 240.444 14.8372 240.262 14.25C240.084 13.6629 239.83 13.2216 239.501 12.9262C239.175 12.6307 238.79 12.483 238.347 12.483C237.684 12.483 237.154 12.8144 236.756 13.4773C236.359 14.1402 236.158 15.1326 236.154 16.4546C236.154 17.3485 236.243 18.0947 236.421 18.6932C236.603 19.2879 236.859 19.7349 237.188 20.0341C237.518 20.3296 237.904 20.4773 238.347 20.4773Z" fill="white"/>
</g>
<defs>
<clipPath id="clip0_401_1466">
<rect width="171" height="30" fill="white" transform="translate(0 2)"/>
</clipPath>
<clipPath id="clip1_401_1466">
<rect x="185" width="78" height="34" rx="4" fill="white"/>
</clipPath>
</defs>
</svg>
